!DOCTYPE svg PUBLIC "-//W3C//DTD SVG 20010904//EN" "http://www.w3.org/TR/2001/REC-SVG-20010904/DTD/svg10.dtd"&gt;<svg xmlns="http://www.w3.org/2000/svg" xmlns:xlink="http://www.w3.org/1999/xlink" viewBox="0 0 607.57 297.71"><linearGradient id="a"><stop offset="0" stop-color="#023189"/><stop offset=".62" stop-color="#00eaf3"/><stop offset="1" stop-color="#00eaf3"/></linearGradient><linearGradient id="b" gradientUnits="userSpaceOnUse" x1="2.06" x2="499.02" xlink:href="#a" y1="186.9" y2="-38.53"/><linearGradient id="c" gradientUnits="userSpaceOnUse" x1="593.98" x2="149.97" xlink:href="#a" y1="81.31" y2="380.8"/><radialGradient id="d" cx="114.43" cy="267.06" gradientUnits="userSpaceOnUse" r="63.94"><stop offset="0" stop-color="#003"/><stop offset="1" stop-color="#003" stop-opacity="0"/></radialGradient><radialGradient id="e" cx="527.79" cy="43.55" r="59.1" xlink:href="#d"/><path d="m405.72 85.14c-1.31 1.41-2.51 2.92-3.72 4.41v-.08c-57.23 59.39-139.2 59.39-196.42 0v.09c-1.22-1.5-2.42-3-3.73-4.42a86.16 86.16 0 0 0 -26.64-19.4 77.58 77.58 0 0 0 -65.45 0 86.08 86.08 0 0 0 -26.65 19.4 94.06 94.06 0 0 0 -24.61 63.71 94.34 94.34 0 0 0 6.66 35.63 92.59 92.59 0 0 0 18 28.67 82.16 82.16 0 0 0 26.65 19.11 80.52 80.52 0 0 0 65.45 0 82.23 82.23 0 0 0 26.64-19.11c1.49-1.6 2.87-3.31 4.23-5v.11c57.23-59.38 138.2-59.38 195.43 0v-.08c1.36 1.7 2.73 3.4 4.21 5a82.23 82.23 0 0 0 26.64 19.11 80.54 80.54 0 0 0 65.46 0 82.23 82.23 0 0 0 26.64-19.11 92.59 92.59 0 0 0 17.95-28.67 94.34 94.34 0 0 0 6.66-35.63 94.06 94.06 0 0 0 -24.61-63.71 86.16 86.16 0 0 0 -26.64-19.4 77.6 77.6 0 0 0 -65.46 0 86.16 86.16 0 0 0 -26.69 19.37z" fill="none"/><path d="m408 12.71a144.73 144.73 0 0 0 -43.7 31.89c-1.54 1.58-3 3.19-4.47 4.82-39.59 41.26-72.63 41-112.31-.84-1.21-1.34-2.42-2.68-3.68-4a143.85 143.85 0 0 0 -46.34-33 134.05 134.05 0 0 0 -55.02-11.58 132 132 0 0 0 -54.73 11.58 144.78 144.78 0 0 0 -46 33 144.61 144.61 0 0 0 -31 47.78 151.26 151.26 0 0 0 -10.75 56.49 149.9 149.9 0 0 0 41.7 104.84 141.17 141.17 0 0 0 43.94 31.74 58.49 58.49 0 0 1 56.36-46.19v-.05a78.31 78.31 0 0 1 -32.26-6.93 82.16 82.16 0 0 1 -26.65-19.11 92.59 92.59 0 0 1 -18-28.67 94.34 94.34 0 0 1 -6.66-35.63 94.06 94.06 0 0 1 24.68-63.71 86.08 86.08 0 0 1 26.65-19.4 77.58 77.58 0 0 1 65.45 0 86.16 86.16 0 0 1 26.64 19.4c1.31 1.41 2.51 2.92 3.73 4.42v-.09c57.22 59.39 139.19 59.39 196.42 0v.08c1.21-1.49 2.41-3 3.72-4.41a86.16 86.16 0 0 1 26.64-19.4 75.74 75.74 0 0 1 32.17-7.21v-.05h.56a58.49 58.49 0 0 0 57.11-45.9c-.7-.33-1.38-.68-2.09-1a134 134 0 0 0 -55.02-11.58 132 132 0 0 0 -54.74 11.58c-.79.36-1.56.76-2.34 1.13" fill="url(#b)"/><path d="m200.05 285.55a133.34 133.34 0 0 0 43.8-31.86c1.28-1.36 2.51-2.75 3.74-4.14v.06c40.34-42.82 72.67-42.82 113 0 1.21 1.38 2.43 2.76 3.71 4.1a140.7 140.7 0 0 0 46 32.73 134.87 134.87 0 0 0 54.74 11.29 139.93 139.93 0 0 0 55-11 132.75 132.75 0 0 0 46.34-33 147.88 147.88 0 0 0 30.7-48.07 154.44 154.44 0 0 0 10.42-56.77 155.09 155.09 0 0 0 -10.42-56.47 140.92 140.92 0 0 0 -30.7-47.78 143.72 143.72 0 0 0 -44.25-32 58.48 58.48 0 0 1 -56.47 45.89v.07a75.86 75.86 0 0 1 32.09 7.2 86.16 86.16 0 0 1 26.64 19.4 94.06 94.06 0 0 1 24.61 63.71 94.34 94.34 0 0 1 -6.66 35.63 92.59 92.59 0 0 1 -17.95 28.67 82.23 82.23 0 0 1 -26.64 19.11 80.54 80.54 0 0 1 -65.46 0 82.23 82.23 0 0 1 -26.64-19.11c-1.48-1.59-2.85-3.29-4.21-5v.08c-57.23-59.38-138.2-59.38-195.43 0v-.11c-1.36 1.71-2.74 3.42-4.23 5a82.23 82.23 0 0 1 -26.64 19.11 78.21 78.21 0 0 1 -31.9 6.91v.06h-.48a58.51 58.51 0 0 0 -57.19 46.22c.71.32 1.39.67 2.11 1a134.86 134.86 0 0 0 54.73 11.29 140 140 0 0 0 55-11c.86-.37 1.69-.78 2.54-1.16" fill="url(#c)"/><path d="m408 12.71a144.73 144.73 0 0 0 -43.7 31.89c-1.54 1.58-3 3.19-4.47 4.82-39.59 41.26-72.63 41-112.31-.84-1.21-1.34-2.42-2.68-3.68-4a143.85 143.85 0 0 0 -46.34-33 134.05 134.05 0 0 0 -55.02-11.58 132 132 0 0 0 -54.73 11.58 144.78 144.78 0 0 0 -46 33 144.61 144.61 0 0 0 -31 47.78 151.26 151.26 0 0 0 -10.75 56.49 149.9 149.9 0 0 0 41.7 104.84 141.17 141.17 0 0 0 43.94 31.74 58.49 58.49 0 0 1 56.36-46.19v-.05a78.31 78.31 0 0 1 -32.26-6.93 82.16 82.16 0 0 1 -26.65-19.11 92.59 92.59 0 0 1 -18-28.67 94.34 94.34 0 0 1 -6.66-35.63 94.06 94.06 0 0 1 24.68-63.71 86.08 86.08 0 0 1 26.65-19.4 77.58 77.58 0 0 1 65.45 0 86.16 86.16 0 0 1 26.64 19.4c1.31 1.41 2.51 2.92 3.73 4.42v-.09c57.22 59.39 139.19 59.39 196.42 0v.08c1.21-1.49 2.41-3 3.72-4.41a86.16 86.16 0 0 1 26.64-19.4 75.74 75.74 0 0 1 32.17-7.21v-.05h.56a58.49 58.49 0 0 0 57.11-45.9c-.7-.33-1.38-.68-2.09-1a134 134 0 0 0 -55.02-11.58 132 132 0 0 0 -54.74 11.58c-.79.36-1.56.76-2.34 1.13" fill="url(#d)" opacity=".71"/>path d="m200.05 285.55a133.34 133.34 0 0 0 43.8-31.86c1.28-1.36 2.51-2.75 3.74-4.14v.06c40.34-42.82 72.67-42.82 113 0 1.21 1.38 2.43 2.76 3.71 4.1a140.7 140.7 0 0 0 46 32.73 134.87 134.87 0 0 0 54.74 11.29 139.93 139.93 0 0 0 55-11 132.75 132.75 0 0 0 46.34-33 147.88 147.88 0 0 0 30.7-48.07 154.44 154.44 0 0 0 10.42-56.77 155.09 155.09 0 0 0 -10.42-56.47 140.92 140.92 0 0 0 -30.7-47.78 143.72 143.72 0 0 0 -44.25-32 58.48 58.48 0 0 1 -56.47 45.89v.07a75.86 75.86 0 0 1 32.09 7.2 86.16 86.16 0 0 1 26.64 19.4 94.06 94.06 0 0 1 24.61 63.71 94.34 94.34 0 0 1 -6.66 35.63 92.59 92.59 0 0 1 -17.95 28.67 82.23 82.23 0 0 1 -26.64 19.11 80.54 80.54 0 0 1 -65.46 0 82.23 82.23 0 0 1 -26.64-19.11c-1.48-1.59-2.85-3.29-4.21-5v.08c-57.23-59.38-138.2-59.38-195.43 0v-.11c-1.36 1.71-2.74 3.42-4.23 5a82.23 82.23 0 0 1 -26.64 19.11 78.21 78.21 0 0 1 -31.9 6.91v.06h-.48a58.51 58.51 0 0 0 -57.19 46.22c.71.32 1.39.67 2.11 1a134.86 134.86 0 0 0 54.73 11.29 140 140 0 0 0 55-11c.86-.37 1.69-.78 2.54-1.16" fill="url(#e)" opacity=".71"&gt;</svg>