<?xml version="1.0" standalone="no"?>
<!DOCTYPE svg PUBLIC "-//W3C//DTD SVG 20010904//EN"
 "http://www.w3.org/TR/2001/REC-SVG-20010904/DTD/svg10.dtd">
<svg version="1.0" xmlns="http://www.w3.org/2000/svg"
 width="320.000000pt" height="320.000000pt" viewBox="0 0 320.000000 320.000000"
 preserveAspectRatio="xMidYMid meet">
<metadata>
Created by potrace 1.14, written by Peter Selinger 2001-2017
</metadata>
<g transform="translate(0.000000,320.000000) scale(0.100000,-0.100000)"
fill="#000000" stroke="none">
<path d="M683 1873 c-8 -3 0 -16 22 -37 30 -29 35 -40 35 -79 0 -94 -106 -143
-178 -82 -30 25 -31 25 -37 5 -17 -55 22 -158 79 -208 113 -99 294 -64 360 70
61 123 8 271 -116 322 -35 15 -138 21 -165 9z"/>
<path d="M2323 1873 c-8 -3 0 -16 22 -37 28 -27 35 -41 35 -70 0 -72 -41 -115
-107 -116 -30 0 -50 7 -72 26 l-30 25 -7 -25 c-15 -60 22 -153 80 -204 113
-99 294 -64 360 70 61 123 8 271 -116 322 -35 15 -138 21 -165 9z"/>
</g>
</svg>
